<?xml version="1.0" encoding="UTF-8"?><svg id="Capa_1" xmlns="http://www.w3.org/2000/svg" viewBox="0 0 674.45 887.09"><defs><style>.cls-1{fill:#fff;}.cls-2{fill:#e84346;}.cls-3{fill:#148a53;}.cls-4{fill:#50b481;}.cls-5{fill:#1d1d1b;}</style></defs><rect class="cls-1" x="97.43" y="562.61" width="490" height="315.9"/><g><path class="cls-2" d="M339.5,213.68c-62.2,0-116.62,38.21-115.96,115.96,.33,51.61,55.25,120.26,115.96,194.87,60.71-74.61,115.63-143.26,115.96-194.87,.66-77.75-53.76-115.96-115.96-115.96Zm0,173.03c-25.81,0-46.65-21.01-46.65-46.82s20.84-46.82,46.65-46.82,46.82,21.01,46.82,46.82-20.84,46.82-46.82,46.82Z"/><g><rect class="cls-4" x="97.43" y="566.32" width="484.76" height="15.6"/><path class="cls-5" d="M595.44,676.16H83.73v-122.02h511.72v122.02Zm-495.17-16.54h478.63v-88.93H100.27v88.93Z"/><g><g><circle class="cls-5" cx="130.59" cy="596.96" r="10.88"/><circle class="cls-5" cx="130.59" cy="633.35" r="10.88"/></g><g><circle class="cls-5" cx="548.58" cy="596.96" r="10.88"/><circle class="cls-5" cx="548.58" cy="633.35" r="10.88"/></g></g></g><g><rect class="cls-4" x="97.43" y="671.79" width="484.76" height="15.6"/><path class="cls-5" d="M595.44,781.63H83.73v-122.02h511.72v122.02Zm-495.17-16.54h478.63v-88.93H100.27v88.93Z"/><g><g><circle class="cls-5" cx="130.59" cy="702.43" r="10.88"/><circle class="cls-5" cx="130.59" cy="738.82" r="10.88"/></g><g><circle class="cls-5" cx="548.58" cy="702.43" r="10.88"/><circle class="cls-5" cx="548.58" cy="738.82" r="10.88"/></g></g></g><g><rect class="cls-4" x="97.43" y="777.26" width="484.76" height="15.6"/><path class="cls-5" d="M595.44,887.09H83.73v-122h511.72v122Zm-495.17-16.54h478.63v-88.92H100.27v88.92Z"/><g><g><circle class="cls-5" cx="130.59" cy="807.89" r="10.88"/><circle class="cls-5" cx="130.59" cy="844.28" r="10.88"/></g><g><circle class="cls-5" cx="548.58" cy="807.89" r="10.88"/><circle class="cls-5" cx="548.58" cy="844.28" r="10.88"/></g></g></g><path class="cls-5" d="M339.59,537.62l-6.41-7.88c-57.75-70.97-117.46-144.34-117.82-200.04-.31-36.38,11.08-67.27,32.94-89.32,22.36-22.54,54.78-34.96,91.29-34.96s68.93,12.42,91.29,34.96c21.86,22.05,33.25,52.94,32.94,89.32h0c-.36,55.7-60.06,129.08-117.82,200.04l-6.41,7.88Zm0-315.66c-32.07,0-60.32,10.68-79.55,30.06-18.67,18.85-28.42,45.67-28.14,77.56,.31,47.98,53.83,115.57,107.69,181.84,53.86-66.27,107.38-133.86,107.69-181.82v-.02c.27-31.89-9.47-58.71-28.14-77.56-19.22-19.39-47.48-30.06-79.55-30.06Z"/><path class="cls-5" d="M339.59,394.91c-30.35,0-55.04-24.68-55.04-55.02s24.68-55.04,55.04-55.04,55.02,24.68,55.02,55.04-24.68,55.02-55.02,55.02Zm0-93.52c-21.23,0-38.5,17.27-38.5,38.5s17.27,38.48,38.5,38.48,38.48-17.27,38.48-38.48-17.27-38.5-38.48-38.5Z"/><g><path class="cls-3" d="M424.47,562.42c-7.2-30.33,5.29-69.93,33.7-69.03-1.29-37.8,5.53-106.21,91.23-98.11,40.69-32.4,74.89-29.22,100.99-.66,26.1,28.56,18,69.06-10.8,95.17-9,64.8-47.23,75.96-54.22,86.14-.69-17.73-36.79-13.5-36.79-13.5h-124.1Z"/><path class="cls-5" d="M578.09,601.14l-.99-24.89c-.03-.94-.31-1.49-1.07-2.13-4.6-3.96-18.53-4.41-26.51-3.47l-131.6,.05-1.5-6.36c-5.54-23.28-.73-49.37,11.95-64.91,5.93-7.25,13.21-11.84,21.39-13.55,.03-35.6,9.11-62.15,26.99-79,16.53-15.57,40.11-22.34,70.1-20.1,40.89-31.24,79.71-30.48,109.63,2.28,12.55,13.73,18.74,30.6,17.88,48.77-.95,20.1-10.76,40.37-27.03,56.04-7.98,51.36-34.05,70.6-48.19,81.03-2.89,2.13-6.17,4.56-6.96,5.72l-14.1,20.53Zm-20.37-47.49c8.72,0,21.37,1.31,29.08,7.9,.4,.34,.79,.69,1.15,1.07,.45-.34,.92-.68,1.39-1.03,13.31-9.82,35.59-26.27,42.07-72.92l.4-2.99,2.23-2c14.35-13,23.04-30,23.81-46.64,.65-13.67-4.04-26.41-13.57-36.83-24.56-26.85-54.73-26.32-89.72,1.55l-2.62,2.08-3.31-.31c-26.62-2.54-46.99,2.67-60.52,15.4-15.56,14.65-22.84,39.61-21.66,74.2l.29,8.82-8.82-.27c-6.38-.48-12.1,2.55-16.72,8.21-8.21,10.06-12.02,27.88-9.84,44.28h117.22c1.2-.16,4.65-.5,9.14-.5Z"/><path class="cls-5" d="M571.26,538.75c-.21,0-.42,0-.63-.02l-80.31-5.96c-3.44-.26-6.35-2.62-7.32-5.93-.97-3.3,.21-6.87,2.96-8.93l122.91-92.6c3.6-2.73,8.8-2.05,11.58,1.63,2.75,3.65,2.02,8.84-1.63,11.58l-105.34,79.37,58.38,4.33c4.56,.34,7.98,4.31,7.64,8.87-.32,4.35-3.96,7.66-8.24,7.66Z"/><path class="cls-5" d="M519.79,511.06c-.21,0-.42,0-.63-.02-4.56-.34-7.96-4.31-7.64-8.87l5.23-70.87c.34-4.56,4.36-7.95,8.87-7.64,4.56,.34,7.96,4.31,7.64,8.87l-5.23,70.87c-.32,4.35-3.96,7.66-8.24,7.66Z"/><path class="cls-5" d="M596.82,494.94c-.52,0-1.03-.05-1.57-.15l-44.41-8.45c-4.47-.86-7.43-5.19-6.57-9.68,.86-4.49,5.14-7.4,9.68-6.57l44.41,8.45c4.47,.86,7.43,5.19,6.57,9.68-.76,3.96-4.22,6.72-8.11,6.72Z"/></g><g><path class="cls-3" d="M249.98,562.42c7.2-30.33-5.29-69.93-33.7-69.03,1.29-37.8-5.53-106.21-91.23-98.11-40.69-32.4-74.89-29.22-100.99-.66-26.1,28.56-18,69.06,10.8,95.17,9,64.8,47.23,75.96,54.22,86.14,.69-17.73,36.79-13.5,36.79-13.5h124.1Z"/><path class="cls-5" d="M96.36,601.14l-14.1-20.53c-.79-1.16-4.07-3.59-6.96-5.72-14.14-10.44-40.21-29.68-48.19-81.03C10.84,478.18,1.03,457.91,.08,437.81c-.86-18.17,5.31-35.04,17.87-48.77,29.92-32.73,68.75-33.54,109.64-2.28,29.93-2.25,53.57,4.52,70.1,20.1,17.88,16.85,26.96,43.39,26.99,79,8.17,1.71,15.46,6.3,21.39,13.55,12.68,15.54,17.5,41.63,11.95,64.91l-1.5,6.36H125.88c-8.9-.99-22.89-.48-27.48,3.42-.76,.66-1.02,1.2-1.05,2.13l-.99,24.89Zm-26.11-220.69c-14.67,0-28.06,6.57-40.1,19.74-9.52,10.42-14.2,23.17-13.55,36.83,.78,16.64,9.47,33.63,23.81,46.64l2.23,2,.4,2.99c6.48,46.65,28.76,63.1,42.07,72.92,.47,.36,.94,.69,1.39,1.03,.36-.37,.74-.73,1.15-1.07,11.66-9.97,34.72-7.85,39.18-7.35l116.27-.05c2.18-16.4-1.63-34.22-9.84-44.28-4.62-5.65-10.34-8.71-16.72-8.21l-8.82,.27,.29-8.82c1.18-34.59-6.11-59.55-21.66-74.2-13.52-12.73-33.91-17.93-60.52-15.4l-3.31,.31-2.62-2.07c-17.83-14.22-34.43-21.31-49.64-21.31Z"/><path class="cls-5" d="M103.19,538.75c-4.28,0-7.92-3.31-8.24-7.66-.34-4.56,3.09-8.53,7.64-8.87l58.38-4.33-105.34-79.37c-3.65-2.75-4.38-7.93-1.63-11.58,2.76-3.68,7.95-4.36,11.58-1.63l122.91,92.6c2.75,2.07,3.93,5.64,2.96,8.93-.97,3.31-3.88,5.67-7.32,5.93l-80.31,5.96c-.21,.02-.42,.02-.63,.02Z"/><path class="cls-5" d="M154.66,511.06c-4.28,0-7.92-3.31-8.24-7.66l-5.23-70.87c-.32-4.56,3.09-8.53,7.64-8.87,4.56-.29,8.53,3.09,8.87,7.64l5.23,70.87c.32,4.56-3.09,8.53-7.64,8.87-.21,.02-.42,.02-.63,.02Z"/><path class="cls-5" d="M77.64,494.94c-3.89,0-7.35-2.76-8.11-6.72-.86-4.49,2.1-8.82,6.57-9.68l44.41-8.45c4.56-.81,8.82,2.08,9.68,6.57,.86,4.49-2.1,8.82-6.57,9.68l-44.41,8.45c-.53,.1-1.05,.15-1.57,.15Z"/></g><g><path class="cls-3" d="M154.68,343.1c-62.69-25.78-84.9-99.33-69.73-151.65,64.49,31.09,89.03,62,69.73,151.65Z"/><path class="cls-5" d="M154.68,351.37c-1.07,0-2.13-.21-3.15-.61-66.98-27.56-90.84-105.34-74.52-161.61,.68-2.33,2.36-4.25,4.57-5.25,2.23-.99,4.75-.97,6.96,.11,65.41,31.52,94.84,65.06,74.23,160.84-.52,2.39-2.07,4.44-4.25,5.57-1.2,.63-2.52,.95-3.84,.95ZM90.58,203.49c-8.66,45.46,10.1,102.39,58.06,127.67,13.7-73.79-7.09-101.42-58.06-127.67Z"/></g><path class="cls-5" d="M18.98,328.62c-2.31,0-4.6-.97-6.24-2.84-3-3.44-2.63-8.68,.81-11.66,19.9-17.32,64.88-37.75,107.15-4.35,3.59,2.83,4.2,8.03,1.37,11.62-2.83,3.59-8.03,4.2-11.62,1.37-41.63-32.87-81.63-.02-86.06,3.83-1.57,1.37-3.51,2.04-5.43,2.04Z"/><g><path class="cls-3" d="M528.54,359.78c-27.3-31.09-40.19-106.16,73.55-119.05-3.79,62.18-73.55,119.05-73.55,119.05Z"/><path class="cls-5" d="M528.53,368.06c-2.29,0-4.59-.95-6.22-2.81-16.11-18.37-27.43-49.68-16.4-78.22,8.06-20.86,31.11-47.24,95.23-54.51,2.55-.21,4.88,.55,6.62,2.23,1.78,1.68,2.71,4.05,2.57,6.49-3.96,65.06-73.62,122.53-76.59,124.96-1.52,1.24-3.38,1.86-5.22,1.86Zm64.05-117.67c-38.25,6.11-62.79,20.74-71.24,42.6-7.3,18.87-1.32,40.14,8.37,54.73,15.64-14.35,54.99-54.15,62.87-97.33Z"/></g><g><path class="cls-5" d="M115.62,14.7l8.32,139.14-22.55,4.72-29.37-86.65,7.77,91.16-22.57,4.72L9.16,36.93l20.65-4.31,30.23,88.88-7.85-93.55,20.82-4.35,30.23,88.88-7.85-93.55,20.24-4.23Z"/><path class="cls-5" d="M141.77,13.01l20.74-2.36,15.59,137.02-20.74,2.36L141.77,13.01Z"/><path class="cls-5" d="M223.97,86.82l-6.87,15.65,2.73,41.49-20.84,1.37L189.93,7.71l20.84-1.37,3.67,55.83L238.28,4.53l22.42-1.47-25.44,60.31,36.67,77.15-22.41,1.49-25.56-55.18Z"/><path class="cls-5" d="M282.95,2.62l20.89-.52,3.44,137.86-20.89,.53-3.44-137.88Z"/><path class="cls-5" d="M336.56,132.34c-6.09-6.19-9.06-14.28-8.92-24.26l1.07-75.25c.13-9.98,3.33-17.98,9.58-24.01C344.56,2.82,352.69-.13,362.65,0c9.98,.15,18.01,3.31,24.1,9.5,6.09,6.2,9.06,14.3,8.92,24.26l-1.05,75.26c-.15,9.98-3.34,17.98-9.6,23.99-6.27,6.03-14.38,8.97-24.36,8.82-9.98-.13-18.01-3.3-24.1-9.5Zm33.68-13.62c2.26-2.33,3.44-5.65,3.49-10l1.07-75.25c.06-4.33-1.02-7.69-3.21-10.1-2.2-2.39-5.27-3.62-9.21-3.67-3.94-.06-7.04,1.08-9.31,3.41-2.26,2.34-3.42,5.67-3.49,10l-1.05,75.25c-.06,4.35,1,7.71,3.2,10.1,2.2,2.41,5.27,3.62,9.21,3.68,3.94,.05,7.04-1.08,9.31-3.42Z"/><path class="cls-5" d="M424.93,139.65c-4.91-3.23-8.59-7.51-11.05-12.81-2.47-5.31-3.47-11.23-3.02-17.79l.34-4.91,20.21-.78-.36,5.1c-.36,4.99,.55,9,2.71,12.04,2.16,3.05,5.33,4.72,9.53,5.01,4.05,.29,7.38-.66,9.97-2.86s4.02-5.31,4.31-9.39c.31-4.44-.68-8.79-2.96-13.04-2.28-4.23-6.96-10.23-14.05-17.96-9.55-10.4-15.98-18.93-19.26-25.62-3.3-6.67-4.68-13.81-4.15-21.42,.71-10.34,4.1-18.37,10.16-24.07,6.06-5.7,14.01-8.22,23.83-7.54,9.82,.69,17.33,4.3,22.55,10.86,5.2,6.54,7.45,14.99,6.74,25.35l-.24,3.54-20.21,.78,.27-3.94c.37-5.23-.34-9.31-2.12-12.18-1.78-2.89-4.49-4.46-8.16-4.72s-6.57,.66-8.69,2.76c-2.12,2.08-3.33,5.3-3.62,9.61-.31,4.33,.71,8.58,3.05,12.76,2.34,4.17,6.99,10.26,13.94,18.24,9.52,10.94,15.93,19.64,19.22,26.12,3.31,6.48,4.7,13.46,4.18,20.92-.45,6.56-2.26,12.29-5.43,17.2-3.18,4.91-7.42,8.64-12.73,11.16-5.31,2.52-11.24,3.57-17.79,3.12-6.56-.45-12.29-2.31-17.2-5.54Z"/><path class="cls-5" d="M527.55,94.86l-9.92,13.93-5.83,41.16-20.68-2.92L510.44,10.47l20.68,2.92-7.84,55.39,35.14-51.53,22.25,3.15-37.27,53.83,20.1,83.02-22.23-3.13-13.72-59.26Z"/><path class="cls-5" d="M581.83,154.04c-4.49-7.43-5.51-15.99-3.05-25.67l18.46-72.95c2.44-9.68,7.4-16.72,14.89-21.13,7.48-4.41,16.06-5.4,25.73-2.94,9.68,2.44,16.75,7.38,21.24,14.83,4.49,7.43,5.51,15.99,3.05,25.65l-18.45,72.97c-2.46,9.68-7.42,16.72-14.89,21.13-7.5,4.39-16.07,5.38-25.75,2.94-9.68-2.46-16.75-7.4-21.24-14.83Zm35.93-5.44c2.75-1.74,4.65-4.72,5.72-8.92l18.45-72.97c1.07-4.2,.81-7.72-.78-10.55-1.6-2.84-4.3-4.75-8.11-5.72-3.83-.97-7.11-.58-9.85,1.16-2.75,1.74-4.64,4.72-5.7,8.93l-18.46,72.95c-1.07,4.2-.81,7.72,.79,10.57,1.58,2.84,4.28,4.73,8.09,5.7,3.83,.97,7.11,.58,9.85-1.16Z"/></g></g></svg>